<svg width="366" height="343" viewBox="0 0 366 343" fill="none" xmlns="http://www.w3.org/2000/svg">
<circle cx="194.5" cy="171.5" r="171.5" fill="#3A1010"/>
<path d="M71.5721 172.296L79.9241 174.024C87.7961 151.752 103.06 132.072 125.716 114.984C148.564 97.896 170.74 89.352 192.244 89.352C199.732 89.352 204.82 90.12 207.508 91.656C209.428 84.744 211.54 80.808 213.844 79.848C214.42 79.656 215.092 79.56 215.86 79.56C222.58 79.56 225.94 80.808 225.94 83.304C225.556 83.304 223.348 85.992 219.316 91.368C215.476 96.744 211.54 102.792 207.508 109.512C203.668 116.232 201.748 121.032 201.748 123.912L202.9 128.232C202.9 128.616 202.708 128.808 202.324 128.808C199.444 128.808 198.004 125.352 198.004 118.44C198.004 111.528 200.212 104.328 204.628 96.84C201.94 96.456 199.54 96.264 197.428 96.264C177.46 96.264 156.916 104.328 135.796 120.456C114.676 136.392 100.468 154.44 93.1721 174.6C116.788 174.6 134.836 174.312 147.316 173.736C158.836 172.968 170.836 171.048 183.316 167.976C184.66 167.976 185.332 168.456 185.332 169.416C185.332 173.064 173.428 176.712 149.62 180.36C125.812 183.816 105.844 185.736 89.7161 186.12C89.1401 189.768 88.8521 193.224 88.8521 196.488C88.8521 209.352 93.1721 219.72 101.812 227.592C110.452 235.656 121.492 239.688 134.932 239.688C161.812 239.688 185.524 228.552 206.068 206.28C208.756 203.592 210.676 202.248 211.828 202.248C212.596 202.248 212.98 203.016 212.98 204.552C212.98 205.896 212.116 207.528 210.388 209.448C200.02 221.16 186.676 230.28 170.356 236.808C154.036 243.528 138.58 246.888 123.988 246.888C109.396 246.888 97.4921 242.664 88.2761 234.216C79.2521 225.96 74.7401 214.632 74.7401 200.232C74.7401 196.008 75.2201 191.016 76.1801 185.256C75.2201 185.256 73.9721 183.624 72.4361 180.36C71.0921 176.904 70.4201 174.696 70.4201 173.736C70.4201 172.776 70.8041 172.296 71.5721 172.296ZM232.632 231.624L237.24 230.184C238.2 230.184 238.68 230.664 238.68 231.624C238.68 234.696 235.32 236.232 228.6 236.232C219.384 236.232 214.776 228.552 214.776 213.192C214.776 203.016 217.848 186.888 223.992 164.808C230.136 142.536 237.912 121.704 247.32 102.312C256.728 82.92 265.176 73.224 272.664 73.224C276.888 73.224 281.112 74.664 285.336 77.544C289.56 80.232 291.672 83.208 291.672 86.472C291.672 100.296 271.32 131.016 230.616 178.632C227.352 192.84 225.72 205.224 225.72 215.784C225.72 226.344 228.024 231.624 232.632 231.624ZM284.76 85.608C284.76 83.304 284.088 82.152 282.744 82.152C276.984 82.152 268.632 92.424 257.688 112.968C246.744 133.32 238.392 152.712 232.632 171.144C267.384 125.64 284.76 97.128 284.76 85.608ZM310.758 105.48C311.142 105.48 311.334 105.96 311.334 106.92L309.894 115.272C307.014 127.176 302.598 133.128 296.646 133.128C292.23 133.128 288.774 131.976 286.278 129.672C293.574 124.68 301.734 116.616 310.758 105.48ZM295.782 152.712C289.83 162.888 284.166 175.848 278.79 191.592C273.414 207.144 270.726 217.896 270.726 223.848C270.726 229.8 271.974 232.776 274.47 232.776C276.198 232.776 278.406 231.72 281.094 229.608C283.782 227.496 285.414 226.152 285.99 225.576C286.566 225 287.238 224.424 288.006 223.848C288.774 223.848 289.158 224.232 289.158 225C289.158 227.304 286.374 229.992 280.806 233.064C275.43 236.328 271.494 237.96 268.998 237.96C261.702 237.96 258.054 232.68 258.054 222.12C258.054 206.376 263.814 185.352 275.334 159.048C275.334 158.28 275.814 156.84 276.774 154.728C277.926 152.616 278.79 151.272 279.366 150.696C280.71 149.352 282.534 148.68 284.838 148.68C291.558 148.68 295.206 150.024 295.782 152.712Z" fill="white"/>
</svg>
